<?xml version="1.0" standalone="no"?>
<!DOCTYPE svg PUBLIC "-//W3C//DTD SVG 1.1//EN" "http://www.w3.org/Graphics/SVG/1.1/DTD/svg11.dtd">
<!--Generator: Xara Designer (www.xara.com), SVG filter version: 6.6.0.1-->
<svg fill="none" fill-rule="evenodd" stroke="black" stroke-width="0.501" stroke-linejoin="bevel" stroke-miterlimit="10" font-family="Times New Roman" font-size="16" style="font-variant-ligatures:none" xmlns:xlink="http://www.w3.org/1999/xlink" xmlns="http://www.w3.org/2000/svg" version="1.1" overflow="visible" width="466.66pt" height="478.337pt" viewBox="2551.02 -478.337 466.66 478.337">
 <defs>
	</defs>
 <g id="Layer 1" transform="scale(1 -1)">
  <path d="M 2714.36,455.005 C 2714.36,467.892 2703.91,478.337 2691.02,478.337 C 2678.14,478.337 2667.69,467.892 2667.69,455.005 L 2667.69,443.196 C 2656.12,443.016 2645.84,442.602 2636.78,441.656 C 2619.99,439.899 2604.77,436.113 2591.24,426.746 C 2582,420.356 2574,412.351 2567.61,403.117 C 2558.24,389.586 2554.46,374.367 2552.7,357.582 C 2551.16,342.84 2551.03,324.848 2551.02,303.336 L 2551.02,299.758 L 2551.02,297.294 L 2551.02,161.684 C 2551.02,130.09 2551.02,104.035 2553.79,83.414 C 2556.7,61.765 2563.05,42.644 2578.36,27.336 C 2593.67,12.027 2612.79,5.679 2634.44,2.769 C 2655.06,-0.004 2681.11,0 2712.71,0 L 2856,0 C 2887.59,0 2913.65,-0.004 2934.27,2.77 C 2955.92,5.68 2975.04,12.027 2990.35,27.336 C 3005.66,42.644 3012,61.766 3014.91,83.414 C 3017.69,104.035 3017.68,130.09 3017.68,161.684 L 3017.68,297.294 L 3017.68,299.426 L 3017.68,303.337 C 3017.67,324.849 3017.54,342.841 3016,357.583 C 3014.25,374.368 3010.46,389.587 3001.1,403.118 C 2994.71,412.352 2986.7,420.356 2977.47,426.747 C 2963.93,436.114 2948.71,439.899 2931.93,441.657 C 2922.87,442.602 2912.59,443.016 2901.02,443.196 L 2901.02,455.005 C 2901.02,467.892 2890.57,478.337 2877.68,478.337 C 2864.8,478.337 2854.35,467.892 2854.35,455.005 L 2854.35,443.337 L 2714.35,443.337 Z M 2971.01,303.335 C 2971,325.187 2970.85,340.644 2969.59,352.73 C 2968.23,365.71 2965.8,372.117 2962.72,376.562 C 2959.53,381.175 2955.53,385.179 2950.91,388.374 C 2946.47,391.448 2940.06,393.881 2927.08,395.241 C 2919.82,395.999 2911.36,396.354 2901.02,396.522 L 2901.02,385.002 C 2901.02,372.115 2890.57,361.666 2877.68,361.666 C 2864.8,361.666 2854.35,372.115 2854.35,385.002 L 2854.35,396.666 L 2714.35,396.666 L 2714.35,385.002 C 2714.35,372.115 2703.91,361.666 2691.02,361.666 C 2678.13,361.666 2667.68,372.115 2667.68,385.002 L 2667.68,396.522 C 2657.35,396.354 2648.88,395.999 2641.62,395.241 C 2628.64,393.881 2622.23,391.448 2617.79,388.374 C 2613.17,385.178 2609.17,381.174 2605.98,376.562 C 2602.91,372.116 2600.47,365.71 2599.11,352.73 C 2597.85,340.644 2597.7,325.187 2597.69,303.335 Z M 2597.68,256.667 L 2597.68,163.335 C 2597.68,129.675 2597.74,106.78 2600.04,89.636 C 2602.26,73.159 2606.16,65.531 2611.35,60.339 C 2616.55,55.143 2624.18,51.237 2640.65,49.023 C 2657.8,46.718 2680.7,46.667 2714.35,46.667 L 2854.35,46.667 C 2888.01,46.667 2910.91,46.718 2928.05,49.023 C 2944.53,51.237 2952.16,55.144 2957.35,60.339 C 2962.54,65.53 2966.45,73.159 2968.66,89.636 C 2970.97,106.781 2971.02,129.675 2971.02,163.335 L 2971.02,256.667 Z" fill="#ffffff" stroke="none" stroke-width="1" stroke-linejoin="miter" marker-start="none" marker-end="none"/>
 </g>
</svg>
