<?xml version="1.0" standalone="no"?>
<!DOCTYPE svg PUBLIC "-//W3C//DTD SVG 1.1//EN" "http://www.w3.org/Graphics/SVG/1.1/DTD/svg11.dtd">
<!--Generator: Xara Designer (www.xara.com), SVG filter version: 6.6.0.1-->
<svg fill="none" fill-rule="evenodd" stroke="black" stroke-width="0.501" stroke-linejoin="bevel" stroke-miterlimit="10" font-family="Times New Roman" font-size="16" style="font-variant-ligatures:none" xmlns:xlink="http://www.w3.org/1999/xlink" xmlns="http://www.w3.org/2000/svg" version="1.1" overflow="visible" width="15.001pt" height="6.626pt" viewBox="1062.29 -838.644 15.001 6.626">
 <defs>
	</defs>
 <g id="Layer 1" transform="scale(1 -1)">
  <path d="M 1077.29,835.477 C 1077.29,833.567 1073.93,832.018 1069.79,832.018 C 1065.64,832.018 1062.29,833.567 1062.29,835.477 C 1062.29,836.892 1064.13,838.108 1066.77,838.644 C 1066.19,837.955 1065.83,837.066 1065.83,836.096 C 1065.83,833.916 1067.61,832.143 1069.79,832.143 C 1071.97,832.143 1073.74,833.916 1073.74,836.096 C 1073.74,837.066 1073.39,837.955 1072.81,838.644 C 1075.44,838.108 1077.29,836.892 1077.29,835.477 Z M 1071.69,836.251 C 1071.06,836.251 1070.55,836.762 1070.55,837.392 C 1070.55,837.691 1070.66,837.962 1070.85,838.165 C 1070.53,838.331 1070.17,838.425 1069.79,838.425 C 1068.5,838.425 1067.46,837.38 1067.46,836.096 C 1067.46,834.812 1068.5,833.767 1069.79,833.767 C 1071.07,833.767 1072.12,834.812 1072.12,836.096 C 1072.12,836.175 1072.11,836.253 1072.11,836.329 C 1071.98,836.279 1071.84,836.251 1071.69,836.251 Z" fill="#ffffff" fill-rule="nonzero" stroke-linejoin="miter" stroke="none" stroke-width="0.029" marker-start="none" marker-end="none"/>
 </g>
</svg>
